<?xml version="1.0" encoding="UTF-8"?>
<svg version="1.1" xmlns="http://www.w3.org/2000/svg" width="249" height="256">
<path d="M0 0 C1.75231178 -0.00503792 1.75231178 -0.00503792 3.5400238 -0.01017761 C7.39729886 -0.01966742 11.25453041 -0.02162969 15.11181641 -0.02270508 C17.11805596 -0.02510631 19.12429553 -0.02750933 21.13053477 -0.03016549 C27.436473 -0.03829525 33.74239697 -0.04075107 40.04833984 -0.04003906 C46.538734 -0.03943849 53.029045 -0.04998965 59.51941812 -0.06578273 C65.10518449 -0.0788869 70.69092377 -0.08422176 76.27670538 -0.08358365 C79.60692394 -0.08332953 82.93700973 -0.08706238 86.26722336 -0.0967617 C89.98420845 -0.10657457 93.70098012 -0.10367832 97.41796875 -0.09765625 C98.51121964 -0.10327576 99.60447052 -0.10889526 100.73085022 -0.11468506 C110.07717466 -0.07626723 119.00209364 0.99298824 126.03759766 7.78588867 C133.55483555 16.15859916 133.4880999 25.01438289 133.48364258 35.80688477 C133.48700119 36.97509262 133.4903598 38.14330048 133.49382019 39.34690857 C133.50331 43.20418362 133.50527227 47.06141518 133.50634766 50.91870117 C133.50874889 52.92494073 133.51115191 54.9311803 133.51380807 56.93741953 C133.52193783 63.24335777 133.52439364 69.54928174 133.52368164 75.85522461 C133.52308107 82.34561877 133.53363223 88.83592976 133.5494253 95.32630289 C133.56252948 100.91206926 133.56786434 106.49780854 133.56722623 112.08359015 C133.56697211 115.41380871 133.57070495 118.7438945 133.58040428 122.07410812 C133.59021714 125.79109321 133.58732089 129.50786488 133.58129883 133.22485352 C133.58691833 134.3181044 133.59253784 135.41135529 133.59832764 136.53773499 C133.56288882 145.15932346 132.63420556 153.04364695 127.33837891 160.14526367 C118.14764107 169.13176289 108.01608323 169.29571428 95.9621582 169.29052734 C94.83603119 169.29388596 93.70990417 169.29724457 92.5496521 169.30070496 C88.83728931 169.31018192 85.12497178 169.31215643 81.41259766 169.31323242 C78.8233895 169.31644723 76.23418153 169.31981148 73.64497375 169.32331848 C68.22058616 169.32930159 62.79621641 169.33120215 57.37182617 169.33056641 C51.12286539 169.32996618 44.87399107 169.3405116 38.62505215 169.35631007 C32.58998484 169.37101816 26.55496409 169.37455293 20.51987648 169.37395668 C17.96312927 169.37513371 15.40638136 169.37953987 12.84964561 169.38728905 C9.26728597 169.39713038 5.6851467 169.39419443 2.1027832 169.38818359 C0.5321537 169.39661285 0.5321537 169.39661285 -1.07020569 169.4052124 C-11.53621605 169.36078354 -20.6192703 168.3134459 -28.66162109 161.14526367 C-35.78257877 152.89537368 -35.96000571 142.77078554 -35.92041016 132.3425293 C-35.92391479 131.1949968 -35.92741943 130.04746429 -35.93103027 128.86515808 C-35.9397909 125.09388068 -35.93401838 121.32279279 -35.92724609 117.55151367 C-35.92859437 114.9179277 -35.93053626 112.28434196 -35.93304443 109.65075684 C-35.93667262 104.1399533 -35.93191524 98.62920355 -35.92236328 93.1184082 C-35.91148092 86.76713134 -35.91500732 80.41598294 -35.92601609 74.06470919 C-35.93622101 67.92924594 -35.93509593 61.79383919 -35.92925262 55.65837097 C-35.92792183 53.05893434 -35.92954379 50.45949442 -35.93421173 47.86006165 C-35.93931075 44.22261974 -35.93151908 40.58542186 -35.92041016 36.94799805 C-35.92445862 35.88175705 -35.92850708 34.81551605 -35.93267822 33.71696472 C-35.87810439 24.03386184 -34.76419321 15.90576 -28.66162109 8.14526367 C-20.17502343 0.09387614 -11.04894069 -0.00456323 0 0 Z " fill="#48914B" transform="translate(75.66162109375,39.854736328125)"/>
<path d="M0 0 C0.680625 0.556875 1.36125 1.11375 2.0625 1.6875 C2.660625 2.161875 3.25875 2.63625 3.875 3.125 C5.0625 4.6875 5.0625 4.6875 5.0625 8.6875 C3.86496094 8.79707031 2.66742188 8.90664062 1.43359375 9.01953125 C-6.54030729 9.78114366 -14.49376477 10.60736482 -22.375 12.0625 C-23.54933594 12.27648437 -24.72367188 12.49046875 -25.93359375 12.7109375 C-31.19741606 14.42219313 -33.50162481 18.29754899 -36.1796875 22.94140625 C-36.77136719 23.96169922 -37.36304688 24.98199219 -37.97265625 26.03320312 C-38.88337891 27.62551758 -38.88337891 27.62551758 -39.8125 29.25 C-40.41191406 30.28447266 -41.01132813 31.31894531 -41.62890625 32.38476562 C-45.50357021 39.09608704 -49.25874267 45.86699933 -52.9375 52.6875 C-51.4525 52.1925 -51.4525 52.1925 -49.9375 51.6875 C-47.50387528 51.51508292 -45.06429404 51.42084232 -42.625 51.375 C-40.68173828 51.31892578 -40.68173828 51.31892578 -38.69921875 51.26171875 C-34.28751407 51.76107058 -32.21053534 52.7016599 -28.9375 55.6875 C-28.0625 58.9375 -28.0625 58.9375 -27.9375 61.6875 C-29.175 61.74357422 -29.175 61.74357422 -30.4375 61.80078125 C-38.02089516 62.23242539 -45.25805675 63.1572265 -52.69335938 64.67114258 C-55.50721752 65.2434587 -58.05554929 65.6875 -60.9375 65.6875 C-61.17210938 66.48671875 -61.40671875 67.2859375 -61.6484375 68.109375 C-63.26298319 72.59096243 -65.38051066 76.70989565 -67.5625 80.9375 C-68.39168111 82.54499222 -69.21738539 84.15428417 -70.0390625 85.765625 C-70.40338379 86.47106445 -70.76770508 87.17650391 -71.14306641 87.90332031 C-72.07308823 89.66650191 -72.07308823 89.66650191 -71.9375 91.6875 C-70.97972656 91.39875 -70.02195312 91.11 -69.03515625 90.8125 C-61.61987014 88.69693759 -54.48139534 87.25387072 -46.75 87.125 C-45.69147827 87.08536133 -45.69147827 87.08536133 -44.61157227 87.04492188 C-40.69836722 87.07128293 -39.06851463 87.58055996 -36.00390625 90.08203125 C-34.13419859 92.43948873 -33.14966462 93.71719529 -32.9375 96.6875 C-34.67776572 98.42776572 -37.02312711 98.02836746 -39.3605957 98.2331543 C-48.47282515 99.03337841 -57.10923116 100.72454309 -65.94238281 103.09863281 C-74.19500479 105.24804989 -74.19500479 105.24804989 -77.9375 103.6875 C-79.51953125 102.15625 -79.51953125 102.15625 -80.75 100.1875 C-81.37841797 99.24390625 -81.37841797 99.24390625 -82.01953125 98.28125 C-84.67784853 90.77008969 -82.48815896 84.2643235 -79.3125 77.3125 C-78.91716064 76.42183838 -78.52182129 75.53117676 -78.11450195 74.61352539 C-68.40633493 53.15636381 -57.15229816 32.19949071 -43.9375 12.6875 C-44.535625 12.44 -45.13375 12.1925 -45.75 11.9375 C-48.29608793 10.48259261 -49.45484865 9.20800729 -50.9375 6.6875 C-50.9375 5.3675 -50.9375 4.0475 -50.9375 2.6875 C-49.78636719 2.65011719 -48.63523438 2.61273438 -47.44921875 2.57421875 C-38.81476578 2.2364563 -30.39726712 1.58681444 -21.875 0.125 C-5.80770516 -2.59493209 -5.80770516 -2.59493209 0 0 Z " fill="#020402" transform="translate(163.9375,76.3125)"/>
<path d="M0 0 C1.17369141 -0.00386719 1.17369141 -0.00386719 2.37109375 -0.0078125 C4.5625 0.125 4.5625 0.125 7.5625 1.125 C7.5625 2.115 7.5625 3.105 7.5625 4.125 C6.99217041 4.3923999 6.42184082 4.6597998 5.83422852 4.93530273 C3.26343338 6.14214167 0.69420278 7.3522751 -1.875 8.5625 C-2.77283203 8.98337891 -3.67066406 9.40425781 -4.59570312 9.83789062 C-5.44970703 10.24072266 -6.30371094 10.64355469 -7.18359375 11.05859375 C-7.97435303 11.43040771 -8.7651123 11.80222168 -9.57983398 12.18530273 C-11.40247994 12.98604789 -11.40247994 12.98604789 -12.4375 14.125 C-15.10808851 14.26615161 -17.76182238 14.16747107 -20.4375 14.125 C-20.7675 12.805 -21.0975 11.485 -21.4375 10.125 C-18.97970129 8.64493873 -16.52128912 7.16591426 -14.0625 5.6875 C-13.36382812 5.26662109 -12.66515625 4.84574219 -11.9453125 4.41210938 C-11.275 4.00927734 -10.6046875 3.60644531 -9.9140625 3.19140625 C-9.29611816 2.81959229 -8.67817383 2.44777832 -8.04150391 2.06469727 C-5.13502633 0.36195264 -3.36454066 -0.01104939 0 0 Z " fill="#040804" transform="translate(154.4375,53.875)"/>
</svg>
